<?xml version="1.0" encoding="utf-8"?>
<!-- Generator: Adobe Illustrator 23.0.3, SVG Export Plug-In . SVG Version: 6.00 Build 0)  -->
<svg version="1.1" id="Layer_1" xmlns="http://www.w3.org/2000/svg" xmlns:xlink="http://www.w3.org/1999/xlink" x="0px" y="0px"
	 viewBox="0 0 410 320" style="enable-background:new 0 0 410 320;" xml:space="preserve">
<style type="text/css">
	.st0{fill:url(#SVGID_1_);}
	.st1{fill:#FFC155;}
	.st2{fill:url(#SVGID_2_);}
	.st3{fill:#55638B;}
</style>
<linearGradient id="SVGID_1_" gradientUnits="userSpaceOnUse" x1="280.9968" y1="242.0079" x2="158.9044" y2="41.8751" gradientTransform="matrix(1 0 0 -1 0 320)">
	<stop  offset="2.237672e-07" style="stop-color:#8CE0FC"/>
	<stop  offset="1" style="stop-color:#E4F3FF"/>
</linearGradient>
<path class="st0" d="M307.18,73.21H184.59c-31.44,2.09-31.3,36.73-31.3,36.73l0,0v165.52h122.74V109.94
	C276.03,109.94,276.61,75.19,307.18,73.21z"/>
<g>
	<rect x="144.73" y="112.03" class="st1" width="1.42" height="127.39"/>
</g>
<linearGradient id="SVGID_2_" gradientUnits="userSpaceOnUse" x1="257.6731" y1="71.8531" x2="171.6599" y2="274.1007" gradientTransform="matrix(1 0 0 -1 0 320)">
	<stop  offset="2.237672e-07" style="stop-color:#8CE0FC"/>
	<stop  offset="1" style="stop-color:#E4F3FF"/>
</linearGradient>
<path class="st2" d="M302.27,70.96c-30.57,1.98-31.15,36.73-31.15,36.73v165.52H148.38V107.69c0,0-0.14-34.64,31.3-36.73
	C179.68,70.96,302.27,70.96,302.27,70.96z"/>
<rect x="164.5" y="114.2" class="st3" width="84.31" height="7.44"/>
<rect x="164.5" y="131.4" class="st3" width="71.99" height="5.27"/>
<rect x="164.5" y="145.31" class="st3" width="36.19" height="7.83"/>
<rect x="211.38" y="145.31" class="st3" width="37.43" height="7.83"/>
<rect x="164.5" y="160.39" class="st3" width="57.65" height="5.58"/>
<rect x="164.5" y="174.33" class="st3" width="64.96" height="3.1"/>
<rect x="164.5" y="188.28" class="st3" width="78.11" height="3.1"/>
<g>
	<path class="st3" d="M200.95,219.54h-36.72v-17.58h36.72V219.54z M164.76,219.01h35.66V202.5h-35.66V219.01z"/>
</g>
<rect x="209.75" y="202.23" class="st3" width="32.86" height="4.03"/>
<rect x="209.75" y="210.75" class="st3" width="23.29" height="4.03"/>
<rect x="164.5" y="230.13" class="st3" width="70.24" height="3.1"/>
<rect x="164.5" y="244.07" class="st3" width="37" height="3.1"/>
<g>
	<path class="st1" d="M280.28,132.76h-1.42v-16.85c-0.02-0.28-1.82-32.61,25.46-37.31l0.24,1.4c-26.04,4.49-24.31,35.56-24.29,35.87
		L280.28,132.76z"/>
</g>
<g>
	<polygon class="st1" points="280.98,280.33 254.46,280.33 254.46,278.91 279.56,278.91 279.56,238.71 280.98,238.71 	"/>
</g>
<g>
	<path class="st3" d="M260.68,252.24h-23.09v-23.09h23.09V252.24z M239.72,250.12h18.84v-18.84h-18.84V250.12z"/>
</g>
<g>
	<polygon class="st3" points="249.5,245.49 241.39,237.85 243.82,235.27 249.66,240.78 262.41,230.31 264.65,233.04 	"/>
</g>
</svg>
