<?xml version="1.0" encoding="utf-8"?>
<!-- Generator: Adobe Illustrator 23.0.3, SVG Export Plug-In . SVG Version: 6.00 Build 0)  -->
<svg version="1.1" id="Layer_1" xmlns="http://www.w3.org/2000/svg" xmlns:xlink="http://www.w3.org/1999/xlink" x="0px" y="0px"
	 viewBox="0 0 410 320" style="enable-background:new 0 0 410 320;" xml:space="preserve">
<style type="text/css">
	.st0{fill:#B5DEFF;}
	.st1{fill:#DD5072;}
	.st2{fill:#B55479;}
	.st3{fill:#8FC66F;}
	.st4{fill:#DED4CE;}
	.st5{fill:#55638B;}
</style>
<g>
	<path class="st0" d="M286.25,53.79h-74.88V12.31h74.88V53.79z M212.79,52.37h72.04V13.73h-72.04V52.37z"/>
</g>
<g>
	<path class="st0" d="M146.14,97.05H71.27V44.88h74.88V97.05z M72.68,95.63h72.04V46.29H72.68V95.63z"/>
</g>
<g>
	<path class="st0" d="M358.31,180.23h-74.88V138.6h74.88V180.23z M284.85,178.82h72.04v-38.8h-72.04V178.82z"/>
</g>
<g>
	<g>
		<g>
			<g>
				<g>
					<g>
						<path class="st1" d="M302.74,164.27l-3.62-5.93c-0.3-0.49-0.14-1.12,0.34-1.42c0.49-0.3,1.12-0.14,1.42,0.34l2.56,4.19
							l6.81-4.03c0.49-0.29,1.12-0.13,1.41,0.36c0.29,0.49,0.13,1.12-0.36,1.41L302.74,164.27z"/>
					</g>
				</g>
			</g>
		</g>
	</g>
	<g>
		<path class="st2" d="M305.17,173.4c-7.18,0-13.02-5.84-13.02-13.02c0-7.18,5.84-13.02,13.02-13.02c7.18,0,13.02,5.84,13.02,13.02
			C318.19,167.56,312.35,173.4,305.17,173.4z M305.17,149.23c-6.15,0-11.16,5.01-11.16,11.16c0,6.15,5.01,11.16,11.16,11.16
			s11.16-5.01,11.16-11.16C316.33,154.23,311.32,149.23,305.17,149.23z"/>
	</g>
</g>
<polygon class="st3" points="242.76,28.71 243.02,34.18 245.19,34.08 244.76,24.9 235.39,25.34 235.49,27.51 241.16,27.25 
	231.17,38.21 220.78,28.74 219.31,30.35 231.31,41.28 "/>
<rect x="109.56" y="59.73" class="st4" width="29.41" height="4.18"/>
<rect x="109.56" y="68.87" class="st4" width="23.11" height="4.18"/>
<rect x="109.56" y="78.01" class="st4" width="25.93" height="4.18"/>
<rect x="323.58" y="152.75" class="st4" width="21.01" height="4.18"/>
<rect x="323.58" y="161.9" class="st4" width="23.58" height="4.18"/>
<rect x="251.52" y="21.82" class="st4" width="26.73" height="4.18"/>
<rect x="251.52" y="30.96" class="st4" width="21.01" height="4.18"/>
<rect x="251.52" y="40.1" class="st4" width="23.58" height="4.18"/>
<g>
	<polygon class="st4" points="302.98,207.9 280.27,207.9 280.27,206.48 301.57,206.48 301.57,181.15 302.98,181.15 	"/>
</g>
<g>
	<polygon class="st4" points="194.03,68.48 192.62,68.48 192.62,61.11 241.9,61.11 241.9,55.93 243.32,55.93 243.32,62.53 
		194.03,62.53 	"/>
</g>
<g>
	<polygon class="st4" points="138.97,155.4 113.11,155.4 113.11,99.63 114.53,99.63 114.53,153.98 138.97,153.98 	"/>
</g>
<g>
	<polygon class="st2" points="361.91,165.15 360.5,165.15 360.5,136.57 329.82,136.57 329.82,135.15 361.91,135.15 	"/>
</g>
<g>
	<polygon class="st2" points="96.4,101.3 67.28,101.3 67.28,73.86 68.69,73.86 68.69,99.89 96.4,99.89 	"/>
</g>
<g>
	<polygon class="st2" points="209.4,30.96 207.99,30.96 207.99,9.35 244.13,9.35 244.13,10.76 209.4,10.76 	"/>
</g>
<g>
	<path class="st5" d="M100.75,62.34c-0.12-0.12-0.27-0.18-0.46-0.18h-3.4c-0.23-1.1-0.65-2.05-1.27-2.86h4.63
		c0.19,0,0.34-0.06,0.46-0.18c0.12-0.12,0.18-0.27,0.18-0.46v-2.03c0-0.19-0.06-0.34-0.18-0.46c-0.12-0.12-0.27-0.18-0.46-0.18
		H83.71c-0.19,0-0.34,0.06-0.46,0.18c-0.12,0.12-0.18,0.27-0.18,0.46v2.64c0,0.17,0.06,0.32,0.19,0.45
		c0.13,0.13,0.28,0.19,0.45,0.19h2.88c2.8,0,4.57,0.75,5.33,2.25h-8.21c-0.19,0-0.34,0.06-0.46,0.18c-0.12,0.12-0.18,0.27-0.18,0.46
		v2.03c0,0.19,0.06,0.34,0.18,0.46c0.12,0.12,0.27,0.18,0.46,0.18h8.49c-0.29,1.09-0.97,1.92-2.04,2.49
		c-1.07,0.57-2.48,0.86-4.22,0.86h-2.23c-0.17,0-0.32,0.06-0.45,0.19c-0.13,0.13-0.19,0.28-0.19,0.45v2.53
		c0,0.17,0.06,0.32,0.18,0.44c2.54,2.7,5.85,6.49,9.9,11.35c0.12,0.16,0.29,0.24,0.5,0.24h3.88c0.28,0,0.47-0.12,0.58-0.36
		c0.13-0.24,0.11-0.46-0.08-0.68c-3.87-4.75-6.91-8.3-9.13-10.66c2.25-0.27,4.08-0.99,5.49-2.19c1.4-1.19,2.26-2.74,2.56-4.65h3.34
		c0.19,0,0.34-0.06,0.46-0.18c0.12-0.12,0.18-0.27,0.18-0.46V62.8C100.93,62.61,100.87,62.46,100.75,62.34z"/>
</g>
</svg>
