<?xml version="1.0" encoding="utf-8"?>
<!-- Generator: Adobe Illustrator 23.0.3, SVG Export Plug-In . SVG Version: 6.00 Build 0)  -->
<svg version="1.1" id="Layer_1" xmlns="http://www.w3.org/2000/svg" xmlns:xlink="http://www.w3.org/1999/xlink" x="0px" y="0px"
	 viewBox="0 0 410 320" style="enable-background:new 0 0 410 320;" xml:space="preserve">
<style type="text/css">
	.st0{fill:#FF7E55;}
	.st1{fill:#E66947;}
	.st2{fill:#494F5C;}
	.st3{opacity:0.3;fill:#C2C2C2;}
	.st4{fill:#EEA886;}
	.st5{fill:#162D40;}
	.st6{fill:#0E1E2B;}
	.st7{fill:#EDDAD3;}
	.st8{fill:#DB9C7C;}
	.st9{fill:#EB4747;}
	.st10{fill:#1D3B54;}
	.st11{fill:#FCCCA2;}
	.st12{fill:#AB3434;}
	.st13{fill:#FFCC63;}
	.st14{fill:#285173;}
	.st15{fill:#D6C5BE;}
	.st16{fill:#252E3B;}
	.st17{fill:#FAE6DE;}
	.st18{fill:#A77860;}
	.st19{fill:#2C5396;}
	.st20{fill:#202338;}
	.st21{fill:#81807E;}
	.st22{fill:#292C47;}
	.st23{fill:#D8D5E0;}
	.st24{fill:#5D676C;}
	.st25{fill:#7F827F;}
	.st26{fill:#B4B1BA;}
	.st27{fill:#EAE6F2;}
	.st28{fill:#1F3B6B;}
	.st29{fill:#323657;}
	.st30{opacity:0.24;fill:#3F444F;enable-background:new    ;}
</style>
<g>
	
		<rect x="41.88" y="251.34" transform="matrix(-0.7682 0.6402 -0.6402 -0.7682 329.6904 400.4582)" class="st0" width="100.93" height="17.16"/>
	
		<rect x="130.49" y="219.37" transform="matrix(-0.7682 0.6402 -0.6402 -0.7682 380.1118 314.1316)" class="st1" width="5.39" height="13.02"/>
	<path class="st2" d="M126.22,213.88c17.32,29.83,55.54,39.97,85.37,22.64c29.83-17.32,39.97-55.54,22.64-85.37
		c-17.32-29.83-55.54-39.97-85.37-22.64C119.04,145.83,108.9,184.05,126.22,213.88z M135.09,208.73
		c-7.68-13.23-8.9-28.44-4.63-41.96c3.78-11.96,11.85-22.6,23.55-29.39c24.93-14.48,56.88-6,71.35,18.93
		c4.44,7.65,6.73,15.97,7.03,24.23c0,0,0,0,0,0c0.69,18.66-8.68,37.09-25.96,47.12C181.51,242.13,149.56,233.66,135.09,208.73z"/>
	<path class="st3" d="M130.46,166.77c0,0,54.36-41.28,101.94,13.77c0,0,0,0,0,0c-0.31-8.27-2.59-16.58-7.03-24.23
		c-14.48-24.93-46.42-33.4-71.35-18.93C142.31,144.17,134.24,154.81,130.46,166.77z"/>
</g>
<g>
	<path class="st4" d="M264.63,241.78c0,0-1.18,0.45-2.08,0.54c-0.9,0.09-2.21,1.03-2.55,1.44c-0.33,0.41-3.07,3.35-3.12,3.72
		c-0.05,0.37,0.7,0.25,0.95-0.05c0.25-0.3,2.64-2.66,2.64-2.66s-2.68,2.98-2.66,3.33c0.02,0.35,0.42,0.65,0.91,0.34
		c0,0,0.39,0.81,1.09,0.11l1.39-1.39c0,0-0.59,0.85,0.18,0.6c0.41-0.13,1.79-1.88,2.18-2.14c0.39-0.26,1.86-2.51,1.86-2.51
		L264.63,241.78z"/>
	<path class="st5" d="M274.14,299.49c0,0-1.02,2.04-1.63,2.44c-0.62,0.4-4.07,3.76-4.78,4.07c-0.71,0.31-2.99,0.74-2.96,1.82
		c0.03,1.08,5.89,0.74,7.03,0.34c1.14-0.4,3.05-2.99,3.82-2.96c0.77,0.03,0.49,3.18,0.49,3.18h0.83c0,0,1.05-3.33,1.02-4.5
		c-0.03-1.17-0.68-4.38-0.68-4.38H274.14z"/>
	<path class="st5" d="M288.42,298.23c0,0-0.45,2.02-1.18,2.72c-0.74,0.7-3.49,3.68-4.19,4c-0.7,0.32-2.04,0.54-2.46,1.06
		c-0.42,0.51-0.17,2.02,2.46,1.86c2.63-0.16,3.48-0.14,4.11-0.66c0.62-0.53,2.64-2.35,3.24-2.4v2.9h0.72c0,0,1.27-3.81,0.82-5.42
		c-0.46-1.61-0.43-3.79-0.43-3.79L288.42,298.23z"/>
	<path class="st4" d="M287.38,211.91c0,0,1.2,3.08,0.27,5.47c0,0,4.39-0.28,4.56-0.78c0.17-0.5-0.18-5.12,0.43-6.49
		C293.23,208.75,287.38,211.91,287.38,211.91z"/>
	<g>
		<g>
			<g>
				<path class="st4" d="M295.33,253.28c0,0-0.25,0.67-0.22,1.17c0.03,0.39-0.19,1.04-0.27,1.39c-0.08,0.35-0.28,1.88-0.23,2.26
					c0.02,0.15,0.52,1.05,0.52,1.37c0.01,0.32-0.06,0.97,0.22,0.95c0.28-0.02,0.5-0.59,0.5-0.59s0.02,0.29,0.27,0.35
					c0.48,0.11,0.69-0.12,0.69-0.12s0.22,0.28,0.43,0.27c0.47-0.01,0.66-0.24,0.66-0.24s0.23,0.13,0.55,0.06
					c0.4-0.1,0.51-0.49,0.51-0.49s0.53,0,0.64-0.28c0.11-0.28,0.04-0.53,0.06-0.76c0.02-0.23-0.36-2.21-1.27-3.5
					c-0.91-1.29-0.45-2.91-0.45-2.91L295.33,253.28z"/>
			</g>
		</g>
	</g>
	<g>
		<path class="st6" d="M293.95,264.11l-0.54-3.76c-0.09-0.6,0.33-1.17,0.94-1.26l5.95-0.86c0.6-0.09,1.17,0.33,1.26,0.94l0.54,3.76
			c0.09,0.6-0.33,1.17-0.94,1.26l-5.95,0.86C294.6,265.13,294.04,264.71,293.95,264.11z M294.45,259.83
			c-0.2,0.03-0.34,0.21-0.31,0.41l0.54,3.75c0.03,0.2,0.21,0.34,0.41,0.31l5.95-0.86c0.2-0.03,0.34-0.21,0.31-0.41l-0.54-3.76
			c-0.03-0.2-0.21-0.34-0.41-0.31L294.45,259.83z"/>
	</g>
	<g>
		
			<rect x="288.14" y="262.61" transform="matrix(-0.9896 0.1435 -0.1435 -0.9896 634.2568 495.6438)" class="st7" width="22.21" height="16.17"/>
	</g>
	<g>
		<g>
			<path class="st8" d="M295.75,259.65c0,0-0.35-1.78,0.04-2.26c0.4-0.48,0.56,0.15,0.56,0.15s-0.17-0.62,0.32-0.82
				c0.49-0.19,0.64,0.56,0.64,0.56s0-0.51,0.54-0.52c0.55-0.01,0.53,0.64,0.53,0.64s0.4-0.72,0.83-0.2
				c0.72,0.88,0.39,2.17,0.39,2.17s-0.11,0.3-0.64,0.28c0,0-0.22,0.76-1.06,0.43c0,0-0.7,0.6-1.1-0.03
				C296.81,260.05,296.03,260.64,295.75,259.65z"/>
		</g>
	</g>
	<path class="st9" d="M286.95,216.34c0,0-2.6,0.9-3.77,1.15c-1.17,0.25-3.63,1.38-3.43,5.64c0.2,4.26,0.93,7.95,1.2,9.78
		c0.27,1.83,0.1,6.49-0.33,8.75c0,0,6.22,1.53,13.54,0c0,0-1.3-3.86-1.26-4.86c0.03-1,4.33-9.22,4.53-10.51
		c0.2-1.3,1.06-7.02-0.9-8.29c-1.96-1.26-3.56-1.1-4.39-1.66C291.3,215.77,288.17,215.93,286.95,216.34z"/>
	<path class="st9" d="M283.62,217.38c0,0-2.86-0.08-4.89,4.41c-2.03,4.49-2.53,7.12-2.99,7.75c-0.47,0.63-2.1,3.09-3.69,4.29
		c-1.6,1.2-8.25,7.95-8.25,7.95l1.83,2.34c0,0,9.58-6.79,10.58-7.95c1-1.16,7.06-9.98,7.42-11.31
		C283.98,223.52,286.78,218.76,283.62,217.38z"/>
	<path class="st9" d="M300.8,239.7c0.02,1.8-1.85,14.06-1.85,14.06l-3.53,0.15c0,0,1.13-12.16,1.53-14.96
		c0.12-0.82,0.02-2.11-0.18-3.5v0c-0.13-0.89-0.29-1.82-0.47-2.71c-0.49-2.46-1.05-4.61-1.05-4.61s-3.18-10.47,1.7-9.7
		c0,0,1.69,2.01,2.24,5.16c0.55,3.14,1.1,7.84,1,9.68C300.1,235.1,300.79,238.37,300.8,239.7z"/>
	<path class="st10" d="M280.62,241.66c0,0-1.13,2.67-1.23,3.35c-0.1,0.68-3.65,9.51-3.89,12.09c-0.25,2.61-1,9.58-1.26,10.58
		c-0.27,1,0.6,5.46,0.73,6.46c0.13,1,0.07,17.3-1.13,25.36c0,0,2.79,1.2,4.92,0c0,0,3.53-12.58,3.33-19.83
		c-0.2-7.25-1.12-10.32,0.01-13.24c1.13-2.93,7.71-11.71,8.38-12.64c0.67-0.93,4.83-6.08,0.89-11.66
		C287.41,236.53,280.62,241.66,280.62,241.66z"/>
	<path class="st10" d="M294.25,265.48c-0.35,2.33,0.02,5.39,0.75,13.91c0.73,8.52-1.28,18.83-1.28,18.83c-2.53,0.87-5.44,0-5.44,0
		c0.07-0.6,0-20.76,0-22.56c0-1.8-0.52-3.84-0.65-5.9c-0.09-1.41-0.74-4-1.48-6.64c-0.22-0.79-0.45-1.59-0.67-2.36c0,0,0,0,0,0
		c-0.12-0.43-0.25-0.86-0.37-1.27c-1.04-3.59-2.43-17.47-2.43-17.47s7.72-6.22,11.48-0.36c3.76,5.86,1.83,10.12,1.7,10.85
		C295.73,253.24,294.6,263.15,294.25,265.48z"/>
	<path class="st9" d="M280.02,230.76c0,0,0.52,10.48-1.98,16.52c0,0,8.24,2.75,18.87,0c0,0-2.28-7.51-2.1-8.66
		c0.18-1.15,4.16-14.39,2.94-17.51C296.53,218,281.25,220.93,280.02,230.76z"/>
	<path class="st4" d="M289.84,199.77c-1.85-0.21-6.65,0.17-6.29,7.39c0.37,7.22,2.99,6.79,5.62,6.02c2.63-0.77,5.76-6.36,5.76-7.85
		C294.93,203.83,295.13,200.36,289.84,199.77z"/>
	<path class="st11" d="M283.82,203.85c0,0,2.09,2.66,4.19,3.3c0,0,1.62,2.89,4.44,3.63c0,0,6.01-5.75,0.96-10.08
		C288.34,196.37,283.78,201.64,283.82,203.85z"/>
	<path class="st4" d="M287.61,206.15c0.07-0.39,0.95-1.2,1.62-0.3c0.68,0.9-0.56,2.99-1.02,2.99
		C287.74,208.85,287.34,207.65,287.61,206.15z"/>
	<path class="st11" d="M294.25,202c0.15-0.23,4.71-2.28,5.66,2.01c0.95,4.29-3.67,9.28-4.48,11.43c-0.81,2.15,0,7.24,0,7.24
		s-2.41-2.62-3.26-5.3C291.25,214.44,290.94,207.03,294.25,202z"/>
	<path class="st5" d="M291.04,252.97c-0.06,0.13-3.91,8.67-4.9,10.16c-0.22-0.79-0.45-1.59-0.67-2.36c0,0,0,0,0,0
		S290.92,253.16,291.04,252.97z"/>
	<path class="st12" d="M297.58,226.72c0,0-0.12,5.43-0.8,8.72c-0.13-0.89-0.29-1.82-0.47-2.71
		C296.34,232.61,297.45,227.57,297.58,226.72z"/>
</g>
<g>
	<g>
		<g>
			<g>
				<path class="st4" d="M161.03,254.51c0,0,0.47,0.45,0.64,0.87c0.13,0.33,0.56,0.78,0.77,1.03c0.2,0.25,0.97,1.44,1.08,1.76
					c0.04,0.13-0.01,1.06,0.11,1.33c0.12,0.26,0.43,0.77,0.2,0.86c-0.24,0.09-0.64-0.28-0.64-0.28s0.1,0.25-0.09,0.39
					c-0.35,0.28-0.63,0.09-0.63,0.09s-0.05,0.4-0.23,0.48c-0.39,0.18-0.63-0.02-0.63-0.02s-0.14,0.28-0.43,0.35
					c-0.37,0.08-0.6-0.25-0.6-0.25s-0.43,0.19-0.63,0c-0.2-0.18-0.25-0.35-0.36-0.53c-0.11-0.18-0.57-1.96-0.33-3.37
					c0.24-1.42-0.87-2.48-0.87-2.48L161.03,254.51z"/>
			</g>
		</g>
	</g>
	<g>
		<path class="st6" d="M164.94,265.4h-6.11c-0.62,0-1.13-0.5-1.13-1.13v-3.85c0-0.62,0.5-1.13,1.13-1.13h6.11
			c0.62,0,1.13,0.5,1.13,1.13v3.85C166.06,264.89,165.56,265.4,164.94,265.4z M158.83,260.05c-0.2,0-0.37,0.17-0.37,0.37v3.85
			c0,0.2,0.17,0.37,0.37,0.37h6.11c0.2,0,0.37-0.17,0.37-0.37v-3.85c0-0.2-0.17-0.37-0.37-0.37H158.83z"/>
	</g>
	<g>
		<rect x="150.42" y="263.74" class="st13" width="22.93" height="16.43"/>
	</g>
	<g>
		<path class="st4" d="M152.14,219.78c0,0-1.17,0.02-1.68,3.53c-0.5,3.51,0.45,4.98,0.56,6.44c0.11,1.46,1.83,10.9,1.87,11.32
			c0.05,0.42,0.28,5.44,0.95,6.77c0.67,1.33,5.58,8.89,5.65,9.27c0.07,0.38,2.39-1.32,2.39-1.32s-3.86-8.08-4.08-9
			s-1.78-5.63-1.53-7.07c0.25-1.44-0.69-9.37-0.6-10.25C155.76,228.59,154.4,220.32,152.14,219.78z"/>
	</g>
	<g>
		<path class="st14" d="M152.14,219.78c0,0-1.17,0.02-1.68,3.53c-0.5,3.51-0.05,4.78,0.25,6.3c0.29,1.44,1.26,10.23,1.31,10.65
			c0.05,0.42,1.21,5.72,1.82,7.58c0.46,1.42,4.84,8.84,4.91,9.22s3.41-1.73,3.41-1.73s-4.28-8.36-4.51-9.28
			c-0.22-0.92-0.95-4.11-0.97-5.57c-0.03-1.71-1.1-10.12-1.01-11C155.76,228.59,155.42,220.98,152.14,219.78z"/>
	</g>
	<path class="st7" d="M142.32,301.68c0,0,2.05,3.04,2.87,3.77c0,0,1.9,0.66,2.01,1.95c0.08,0.84,0,2.2-2.16,2.26
		c-2.17,0.06-3.56-0.7-3.95-2.01c-0.4-1.31-1.15-1.9-1.15-1.9v2.75h-0.49c0,0-0.12-2.66-0.15-3.14c-0.03-0.49-0.35-2.37,0.68-3.2
		C141.01,301.33,142.32,301.68,142.32,301.68z"/>
	<path class="st7" d="M156.19,299.26c0,0,0.35,0.84,1.02,1.71c0.49,0.64,2.01,3.27,2.69,3.45c0.67,0.18,2.75,0.55,2.93,1.71
		c0.18,1.16,0.27,1.98-1.77,2.08c-2.05,0.09-3.39,0.21-4.37-1.22c-0.98-1.43-2.53-2.47-2.53-2.47v3.74h-0.79c0,0-0.37-3.9-0.58-4.17
		c-0.21-0.27-0.76-3.27,1.13-4.82C155.81,297.7,156.19,299.26,156.19,299.26z"/>
	<path class="st4" d="M140.95,243.06c0,0-2.58,3.36-3.28,7.34c-0.7,3.98,0.41,17.35,0.38,19.32c-0.03,1.97-1.86,6.87-1.5,10.58
		c0.37,3.71,3.43,21.86,3.43,21.86l2.34-0.48c0,0-0.23-18.82,0-20.38c0.23-1.56,0.69-7.23,0.78-7.87
		c0.09-0.64,5.81-17.47,5.81-20.35C148.91,250.22,147.17,238.37,140.95,243.06z"/>
	<path class="st4" d="M153.92,244.37c0,0,4.24,16.19,4.75,18.44c0.5,2.24,1.23,4.09,1.23,5.05c0,2.21-0.82,5.76-0.82,5.76
		l-2.88,25.64h-2.27c0,0-1.43-14.97-1.66-18c-0.23-3.02,1.65-7.69,1.19-8.97s-7.37-16.07-7.37-16.07S140.84,239.67,153.92,244.37z"
		/>
	<path class="st4" d="M145.54,305.61c0,0-1.78,0.92-3.4-0.29c-1.62-1.21-2.16-3.15-2.16-3.15l2.34-0.48L145.54,305.61z"/>
	<path class="st4" d="M159.9,304.42c0,0-1.83,0.46-2.53,0c-0.7-0.46-3.09-4.49-3.88-4.73c0,0,0.77-1.55,2.7-0.42
		C156.19,299.26,159.38,303.75,159.9,304.42z"/>
	<path class="st10" d="M159.35,265.39c0,0-7.8,4.59-22.41,4.59c0,0-0.83-16.95,1.3-21.72c2.12-4.77,16.23-1.8,16.23-1.8
		S158.85,261.89,159.35,265.39z"/>
	<g>
		<path class="st7" d="M148.7,218.52c0,0,2.27,1.07,3.05,1.23c0.79,0.16,3.84,4.12,4.37,5.57s0,3.62-1.1,6.17
			c-1.1,2.55-0.06,3.4-0.57,5.95c-0.5,2.55-0.94,7.95-0.85,9.36c0.09,1.42-12.73,1.68-15.66-0.9c0,0,2.94-4.41,3.32-5.04
			c0.38-0.63,0.06-4.06-0.28-4.94c-0.35-0.88-2.65-8.38-2.65-8.38s-1.88-5.76-0.18-7.08c1.48-1.15,5.51-1.56,6.23-1.81
			C145.11,218.41,147.22,218.3,148.7,218.52z"/>
	</g>
	<g>
		<path class="st15" d="M149.42,223.57l1.38-1.61l-1.2-4.24C149.6,217.71,149.2,220.07,149.42,223.57z"/>
	</g>
	<g>
		<path class="st4" d="M145.84,202.43c1.35-0.47,6.29-1.64,7.46,4.69c1.16,6.33-2.33,10.83-5.54,9.63c-3.21-1.2-5.19-5.57-5.38-8.91
			C142.19,204.51,144.14,203.03,145.84,202.43z"/>
	</g>
	<g>
		<path class="st16" d="M153.3,207.12c0,0,0.24-5.41-5.14-5.6c-5.38-0.19-6.83,4.24-6.39,7.47c0.44,3.23,2.67,4.93,2.67,4.93
			s-0.19-2.61,0.85-3.29c1.04-0.68,5.23-2.03,7.06-5.18C152.34,205.46,153.19,206.45,153.3,207.12z"/>
	</g>
	<g>
		<path class="st16" d="M146.59,206.55c-0.71,2.16-2.81,3.4-4.7,2.78c-1.88-0.62-2.84-2.87-2.13-5.03s2.81-3.4,4.7-2.78
			C146.34,202.14,147.3,204.39,146.59,206.55z"/>
	</g>
	<g>
		<path class="st4" d="M149.78,215.9c0,0-0.45,4.16-0.36,5.51c0,0-2.35,2.36-5.03-2.75c0,0,1.13-2.11,0.28-4.98
			C143.82,210.81,149.78,215.9,149.78,215.9z"/>
	</g>
	<g>
		<polygon class="st4" points="149.42,221.41 149.42,223.57 146.71,221.54 		"/>
	</g>
	<g>
		<polygon class="st15" points="149.42,223.57 148.3,222.17 144.51,218.4 143.28,219.58 		"/>
	</g>
	<g>
		<path class="st14" d="M143.98,218.76c0,0,3.18,4.83,3.33,6.95c0.15,2.12-1.18,18.02-2.25,23.12c-1.07,5.11-8.79-0.58-8.79-0.58
			s5.19-8.4,3.2-15.12c-1.99-6.72-2.71-9.41-2.71-9.41s0.69-3.74,3.11-4.27C142,219,143.98,218.76,143.98,218.76z"/>
	</g>
	<g>
		<path class="st14" d="M156.34,225.96c0,0,0.57,2.03-1.66,6.52c0,0,0.04,5.74,0.1,7.54c0.06,1.79,0.49,8.58,0.49,8.58l-2.21,1.29
			c-0.45,0.26-1-0.1-0.93-0.61c0.63-5.16,2.66-24.74-1.74-30.01l1.76,0.52C152.14,219.78,155.28,222.35,156.34,225.96z"/>
	</g>
	<g>
		<path class="st4" d="M145.83,209.49c-0.2-0.5-0.85-0.64-1.23-0.35c-0.38,0.28-0.6,1.13,0,2.23
			C145.2,212.47,147.31,213.24,145.83,209.49z"/>
	</g>
	<g>
		<polygon class="st17" points="150.8,221.96 152.53,222.43 149.6,217.71 		"/>
	</g>
	<g>
		<polygon class="st17" points="148.3,222.17 146.71,224.25 143.46,218.83 144.51,218.4 		"/>
	</g>
	<g>
		<path class="st18" d="M149.69,216.82l-0.08,0.83c0,0-1.87,0.35-4.32-2.64C145.29,215.01,147.02,217.13,149.69,216.82z"/>
	</g>
	<g>
		<g>
			<g>
				<path class="st4" d="M159.32,242.27c0,0,1.1,0.71,1.73,0.31c0.54-0.34,1.48-0.38,1.77-0.4c0.39-0.02,1.55-0.52,1.58-0.04
					c0.03,0.49-1.88,0.92-2.26,1.09c-0.38,0.17,1.3,0.99,1.49,1.39c0.19,0.39-1.33,3.1-2.42,2.41c-1.09-0.7-1.79-2.16-2.01-2.25
					c-0.22-0.08-0.81-0.48-0.81-0.48L159.32,242.27z"/>
			</g>
		</g>
	</g>
	<g>
		<path class="st4" d="M138.41,220.22c0,0,1.53-0.38,2.85,1.04c1.32,1.42,1.98,3.75,2.33,4.5c0.35,0.76,4.72,7.74,4.97,7.9
			c0.25,0.16,4.7,3.74,6.71,5.66c2.01,1.92,5.94,4.06,5.94,4.06l-1.48,2.08c0,0-11.93-6.36-13.44-8.69
			c-1.51-2.33-7.54-8.78-7.54-8.78S135.16,222.56,138.41,220.22z"/>
	</g>
	<g>
		<g>
			<g>
				<path class="st4" d="M163.41,244.4c0,0,3.19,2.36,3.28,2.69c0.08,0.34-0.06,0.5-0.36,0.29c-0.31-0.21-3.15-2.19-3.15-2.19
					s3.31,3.43,3.44,3.69c0.07,0.15-0.17,0.49-0.35,0.39c-0.18-0.1-3.65-3.3-3.65-3.3s3.09,3.2,3.13,3.45
					c0.04,0.22-0.27,0.47-0.51,0.25c-0.25-0.22-3.28-3.03-3.28-3.03s2.1,2.47,2.01,2.7c-0.05,0.14-0.26,0.44-0.78-0.21
					c-0.52-0.66-1.92-2.07-1.92-2.07L163.41,244.4z"/>
			</g>
		</g>
	</g>
	<path class="st10" d="M155.2,231.35c0,0,0.11,7.17-0.33,10.63l-0.19-9.5L155.2,231.35z"/>
	<g>
		<path class="st14" d="M139.2,219.69c0,0,0.87,0.15,2.19,1.56c1.32,1.42,1.98,3.75,2.33,4.5c0.35,0.76,4.72,7.74,4.97,7.9
			c0.25,0.16,3.89,2.66,5.91,4.58c2.01,1.92,5.76,4.21,5.76,4.21l-1.92,2.86c0,0-10.52-5.83-12.19-8.04
			c-1.78-2.37-8.14-9.33-8.14-9.33S134,221.59,139.2,219.69z"/>
	</g>
	<g>
		<g>
			<path class="st8" d="M163.19,259.91c0,0-0.41-1.6-0.92-1.83c-0.51-0.24-0.4,0.35-0.4,0.35s-0.1-0.58-0.58-0.55
				c-0.48,0.03-0.31,0.71-0.31,0.71s-0.2-0.42-0.65-0.21c-0.45,0.2-0.18,0.73-0.18,0.73s-0.61-0.44-0.76,0.16
				c-0.25,1,0.53,1.93,0.53,1.93s0.21,0.21,0.63-0.02c0,0,0.48,0.54,1.04-0.06c0,0,0.81,0.22,0.89-0.46
				C162.48,260.65,163.35,260.83,163.19,259.91z"/>
		</g>
	</g>
	<path class="st10" d="M146.38,238.94l-3.6-5.81c0,0,3.07,3.63,3.39,4.01c0.32,0.39,0.35,0.42,0.35,0.42
		S146.42,238.74,146.38,238.94z"/>
</g>
<g>
	<path class="st4" d="M183.93,252.94c0,0,0.25,1.13,0.69,2.27c0.21,0.56,0.32,4.23,0.3,4.71c-0.02,0.4-0.28,0.16-0.42-0.1
		c-0.08-0.15-0.32-1.42-0.55-2.1c-0.2-0.57-0.37-0.78-0.47-0.6s-0.28,2.55-0.07,3.55c0.22,1.01-0.01,3.33-0.54,3
		c-0.53-0.34-1.77-4.54-1.67-6.12c0.1-1.58,0.67-3.57,0.67-3.57L183.93,252.94z"/>
	<g>
		<path class="st19" d="M183.44,255.07c0,0,1.73-11.52,2.19-13.71c0.21-0.99,0.78-3.46,1.14-5.49c0.12-0.67,0.22-1.36,0.31-2.03
			c0,0,0,0,0,0c0.34-2.69,0.43-5.14,0.43-5.14s1.5-6.89-2.84-7.31c0,0-1.16,0.36-1.23,0.84c-0.26,1.84-0.86,5.82-0.89,6.76
			c-0.02,0.77-1.14,8.49-1.16,8.77c-0.03,0.53-0.29,4.11-0.4,5.68c-0.25,3.67-0.34,11.88-0.34,11.88L183.44,255.07z"/>
	</g>
	<g>
		<path class="st20" d="M182.05,304.19c0,0-1.68,1.87-3.38,2.27c-1.7,0.39-2.89,0.89-2.91,1.97c-0.01,1.07,4.9,1.78,6.85,0.7
			c2.91-1.62,3.2-1.13,3.53-1.94c0.32-0.81-0.39-2.97-0.37-3.23C185.8,303.64,182.05,304.19,182.05,304.19z"/>
	</g>
	<g>
		<path class="st20" d="M199.16,304.68c0,0-1.23,1.82-2.88,2.24c-1.63,0.41-2.68,1.2-2.76,2.25c-0.08,1.04,3.84,2.41,6.59,0.58
			c1.81-1.21,2.48-1.14,2.85-1.9c0.36-0.77-0.19-2.91-0.15-3.16C202.84,304.38,199.16,304.68,199.16,304.68z"/>
	</g>
	<g>
		<path class="st21" d="M182.24,303.3c0,0-0.22,0.88-0.19,0.9c0.03,0.02,3.84,0.47,3.72-0.23c-0.09-0.57-0.23-1.19-0.23-1.19
			L182.24,303.3z"/>
	</g>
	<g>
		<path class="st21" d="M199.21,303.78c0,0-0.08,0.88-0.05,0.9c0.03,0.02,3.66,0.7,3.64,0.01c-0.02-0.55-0.23-1.24-0.23-1.24
			L199.21,303.78z"/>
	</g>
	<g>
		<path class="st22" d="M185.7,250.77c0,0-1.38,13.44-2.1,18.04c-0.84,5.38-1.13,9.82-1.36,12.61c-0.3,3.5-0.35,20.72-0.56,21.75
			c-0.21,1.02,4.58,0.28,4.58,0.28s2.36-22.5,3.24-26.23c0.82-3.47,3.86-18.42,4.6-17.47c0.75,0.95,1.67,17.44,2.23,20.18
			c0.55,2.74,2.24,24.18,2.24,24.18s3.81,0.76,4.83-0.1c0,0,0.46-18.48,0.11-23.61c-0.13-1.96,2.29-23.46-0.82-32.12
			C201.03,243.7,185.7,250.77,185.7,250.77z"/>
	</g>
	<g>
		<path class="st23" d="M209.41,252.68c0,0-2.33,0.71-3.31,0.53c-0.98-0.18-0.48-12.17-0.52-14.66c-0.03-2.02-1.14-7.37-1.14-7.37
			s0,0,0,0.01c0,0,0,0,0,0.01c0,0,0,0.01,0,0.01c-0.11,0.4-1.6,5.94-1.66,8.61c-0.05,2.76,0.36,13.34,0.36,13.34l-3.71,1.75
			l-12.84,0.37l-1.87,0.03c0,0,0.29-6.27,0.4-8.42c0.07-1.37,0.33-3.81,0.27-6.19c0,0,0.04-2.51-0.21-3.59
			c-0.03-4.77-0.32-9.49-0.32-9.49c-0.16-2.16-0.27-4.18-0.33-6.07c0.52-0.28,1.15-0.6,1.65-0.84c1.55-0.74,3.72-1.74,5.11-2.37
			c0.81-0.37,1.61-0.65,1.61-0.65s5.55-0.53,6-0.5c0.14,0.01,0.84,0.25,1.75,0.6c1.97,0.75,5.76,2.27,6.37,2.7
			c0.89,0.63,2.76,15.71,2.84,16.77C210.01,239.14,209.41,252.68,209.41,252.68z"/>
	</g>
	<g>
		<path class="st4" d="M198.87,217.16c-0.41,3.74-4.56,3.74-4.56,3.74s-1.72-1.5-1.66-2.62c0-0.02,0-0.05,0.01-0.07
			c0.03-0.2,0.26-0.46,0.28-0.87c0-0.06,0-0.11,0.01-0.17c0-0.06,0-0.11,0-0.17c0-0.28-0.02-0.56-0.03-0.76
			c-0.01-0.07-0.01-0.13-0.02-0.17c-0.01-0.07-0.01-0.11-0.01-0.11s0.67-0.71,1.52-1.55c1.49-1.47,3.53-3.35,3.54-2.61
			c0,0.04-0.01,0.09-0.02,0.14C197.56,213.64,198.87,217.16,198.87,217.16z"/>
	</g>
	<g>
		<path class="st24" d="M198.49,248.06c0,0,0.34,2.12,0.37,2.67l0.71-0.14c0,0-0.2-2.24-0.31-2.62L198.49,248.06z"/>
	</g>
	<g>
		<path class="st25" d="M210.15,260.41c0,0-0.22-2.97-1.01-3.42c-0.8-0.45-0.33,0.46-0.33,0.46s0.48,2.15,0.59,3.03
			C209.4,260.52,210.15,260.41,210.15,260.41z"/>
	</g>
	<g>
		<g>
			<polygon class="st25" points="202.29,262.51 212.77,259.37 212.94,272.33 202.56,278.76 			"/>
		</g>
	</g>
	<g>
		<polygon class="st25" points="202.56,278.76 203.88,278.99 213.97,272.5 213.65,259.41 212.77,259.37 		"/>
	</g>
	<path class="st26" d="M196.04,219.37l-1.73,1.54c0,0,2-0.13,2.37-0.47L196.04,219.37z"/>
	<path class="st22" d="M185.08,253.28c0,0,8.12,0.69,15.24,0v2.33c0,0-10.69,1.54-15.59-0.45L185.08,253.28z"/>
	<g>
		<path class="st19" d="M191.29,218.33c-0.45,0.21-0.98,0.45-1.54,0.71c-1.18,0.55-2.51,1.16-3.56,1.66
			c-0.56,0.27-1.25,0.58-1.78,0.8c0.06,1.92,0.16,3.98,0.32,6.18c0,0,0.15,5.38,0.46,10.48c0.11,0.73,0.16,1.48,0.1,2.24
			c-0.08,1-0.19,2.09-0.32,3.22c0,0.01,0,0.03,0,0.04c-0.03,0.27-0.06,0.54-0.1,0.82c0,0,0,0.01,0,0.01
			c-0.69,5.68-1.86,12.21-2.47,14.18c-0.13,0.41,0.32,0.79,0.63,1.09l2.22,1.4c0,0,0.92-8.43,1.22-11.29
			c0.29-2.76,1.22-6.47,1.62-10.08v0c0.51-4.58,1.22-9.07,1.6-11.73c0.99-6.94,2.31-10.04,2.31-10.04L191.29,218.33z"/>
	</g>
	<g>
		<path class="st19" d="M205.41,238.66c0.17,2.32-0.81,15.12,0.17,15.31c0.98,0.18,4.57-0.61,4.57-0.61s0.45-13.81,0.31-15.26
			c-0.11-1.05-1.78-16.86-2.67-17.5c-0.51-0.37-4.3-1.71-6.16-2.44c-0.34-0.13-0.67-0.26-0.97-0.38c-0.39,0.44-4.58,8.18-4.91,14.47
			c-0.1,1.92,0.35,5.96,0.69,9.26c0.36,3.53,0.77,6.28,1.06,9.22c0.58,5.81,0.99,10.43,0.99,10.43l5.78-2.57
			c0.94-0.47,2.23-2.39,1.88-3.37c-1.34-3.74-3.02-10.14-3.02-13.42c0,0,0.64-8.04,1.16-9.81
			C204.28,231.99,205.19,235.72,205.41,238.66z"/>
	</g>
	<g>
		<path class="st4" d="M206.49,253.81c0,0-0.29,1.29-0.67,2.58c-0.38,1.29-0.75,1.71-0.58,2.44c0.13,0.55,0.77,0.96,0.92,0.78
			c0.16-0.18,0.2-2.34,1.1-2.35c0.9,0-0.23,2.68,0.3,2.48c0.53-0.2,2.57-1.36,2.42-2.45c-0.15-1.09-0.98-1.86-0.95-3.49
			c0.03-1.48-0.44-2.09-0.44-2.09L206.49,253.81z"/>
	</g>
	<g>
		<g>
			<path class="st25" d="M207.17,257.18c0,0-1.19,0.32-1.06,4.36l1.35-0.25c0,0-0.06-2.23,0.33-3.45
				C207.79,257.84,207.71,257.06,207.17,257.18z"/>
		</g>
	</g>
	<g>
		<path class="st19" d="M205.26,245.14l0.06,10.18c0,0,2.03-0.09,4.83-1.12l0.19-14.36L205.26,245.14z"/>
	</g>
	<path class="st23" d="M192.42,219.64c0,0-0.15,2.12,1.65,2.17c1.8,0.05,3.22-1.68,3.22-1.68l-2.98,0.77l-1.82-1.54L192.42,219.64z"
		/>
	<path class="st27" d="M198.63,216.46c0,0-1.7,2.19-2.59,2.9l1.46,2.45l2.51-4.28L198.63,216.46z"/>
	<path class="st26" d="M192.77,219.77l1.54,1.14c0,0-1.35-2.46-1.38-3.56L192.77,219.77z"/>
	<polygon class="st27" points="192.94,217.35 191.95,218.04 190.85,221.32 192.77,219.77 	"/>
	<path class="st28" d="M184.98,234.31c0,0,0.44,3.79,0.21,7.24c-0.23,3.46-1.18,8.98-1.18,8.98S184,238.41,184.98,234.31z"/>
	<g>
		<path class="st4" d="M188.04,206.39c0,0-1.08,2.64-0.38,2.96c0.59,0.26-0.35,2.84-0.47,3.26c-0.11,0.42,1.07,0.59,1.34,0.82
			c0.27,0.23,1.33,3.33,2.3,3.32c0.96,0,5.1-1.95,6.14-3.28c1.04-1.34,1.42-6.92,0.4-9.16
			C196.35,202.07,189.96,201.78,188.04,206.39z"/>
	</g>
	<g>
		<path class="st29" d="M187.83,206.96c0,0-1.66-2.55,0.63-4.82c2.29-2.26,7.26,0.76,7.8,0.84c0.53,0.08,3.66,0.75,2.62,5.5
			c-0.93,4.23-1.01,4.34-1.01,4.34s-1.24-2.24-1.82-2.57c-0.91-0.52-2.74-0.18-2.74-0.18s0.64-2.43-0.78-2.62
			C191.11,207.28,189.17,206.3,187.83,206.96z"/>
	</g>
	<g>
		<path class="st4" d="M194.62,208.59c0.09-0.33,0.34-1.75,1.6-1.07s-0.38,3.49-0.58,3.54
			C195.44,211.12,193.88,211.39,194.62,208.59z"/>
	</g>
	<path class="st18" d="M196.81,213.65c-0.03,0.07-0.97,2.36-3.87,3.52c0-0.06,0-0.11,0-0.17c0-0.28-0.02-0.56-0.03-0.76
		c-0.01-0.07-0.01-0.13-0.02-0.17C192.89,216.08,196,214.61,196.81,213.65z"/>
</g>
<path class="st30" d="M250.39,151.15c-17.32-29.83-55.54-39.97-85.37-22.64c-2.99,1.74-5.79,3.69-8.37,5.82v14.32
	c3.73-4.38,8.26-8.22,13.53-11.27c24.93-14.48,56.88-6,71.35,18.93c4.44,7.65,6.72,15.97,7.03,24.23c0.02,0.65,0.04,1.29,0.04,1.93
	c0,17.99-9.31,35.5-25.99,45.19c-22.18,12.87-49.91,7.59-65.95-11.28v14.34c3.77,3.12,7.87,5.74,12.2,7.86h55.09
	c1.29-0.63,2.56-1.32,3.82-2.05C257.58,219.21,267.72,180.98,250.39,151.15z"/>
</svg>
